ply
format ascii 1.0
comment VCGLIB generated
element vertex 778
property float x
property float y
property float z
element face 1556
property list uchar int vertex_indices
end_header
-4.814587 -1.348984 30 
-5 -4.08177e-15 30 
-10 -2.2448e-15 30 
-4.814587 1.348984 30 
-9.629173 2.697968 30 
-4.272097 2.59792 30 
-8.544194 5.195839 30 
-3.412766 3.65418 30 
-6.825531 7.30836 30 
-2.300325 4.439426 30 
-4.60065 8.878852 30 
-1.01728 4.895421 30 
-2.03456 9.790841 30 
0.3412121 4.988344 30 
0.6824241 9.976687 30 
3.348796 9.422609 30 
1.674398 4.711305 30 
5.766803 8.169699 30 
2.883402 4.084849 30 
7.757113 6.310879 30 
3.878556 3.15544 30 
9.172113 3.984011 30 
4.586057 1.992005 30 
9.906859 1.361666 30 
4.95343 0.6808332 30 
9.906859 -1.361666 30 
4.95343 -0.6808332 30 
4.586057 -1.992005 30 
9.172113 -3.984011 30 
3.878556 -3.15544 30 
7.757113 -6.310879 30 
2.883402 -4.084849 30 
5.766803 -8.169699 30 
1.674398 -4.711305 30 
3.348796 -9.422609 30 
0.3412121 -4.988344 30 
0.6824241 -9.976687 30 
-2.03456 -9.790841 30 
-1.01728 -4.895421 30 
-4.60065 -8.878852 30 
-2.300325 -4.439426 30 
-6.825531 -7.30836 30 
-3.412766 -3.65418 30 
-8.544194 -5.195839 30 
-4.272097 -2.59792 30 
-9.629173 -2.697968 30 
1.023636 14.96503 0 
0.3412121 4.988344 0 
-3.05184 14.68626 0 
-1.01728 4.895421 0 
-6.900976 13.31828 0 
-2.300325 4.439426 0 
-10.2383 10.96254 0 
-3.412766 3.65418 0 
-12.81629 7.793759 0 
-4.272097 2.59792 0 
-14.44376 4.046952 0 
-4.814587 1.348984 0 
-15 -1.632477e-15 0 
-5 -4.08177e-15 0 
-14.44376 -4.046952 0 
-4.814587 -1.348984 0 
-4.272097 -2.59792 0 
5.023194 14.13391 0 
1.674398 4.711305 0 
8.650205 12.25455 0 
2.883402 4.084849 0 
11.63567 9.466319 0 
3.878556 3.15544 0 
13.75817 5.976017 0 
4.586057 1.992005 0 
14.86029 2.0425 0 
4.95343 0.6808332 0 
14.86029 -2.0425 0 
4.95343 -0.6808332 0 
4.586057 -1.992005 0 
13.75817 -5.976017 0 
3.878556 -3.15544 0 
11.63567 -9.466319 0 
2.883402 -4.084849 0 
8.650205 -12.25455 0 
1.674398 -4.711305 0 
5.023194 -14.13391 0 
0.3412121 -4.988344 0 
1.023636 -14.96503 0 
-3.05184 -14.68626 0 
-1.01728 -4.895421 0 
-6.900976 -13.31828 0 
-2.300325 -4.439426 0 
-10.2383 -10.96254 0 
-3.412766 -3.65418 0 
-12.81629 -7.793759 0 
-9.629173 -2.697968 15 
-10 -2.2448e-15 15 
-15 -1.632477e-15 15 
-9.629173 2.697968 15 
-14.44376 4.046952 15 
-8.544194 5.195839 15 
-12.81629 7.793759 15 
-6.825531 7.30836 15 
-10.2383 10.96254 15 
-4.60065 8.878852 15 
-6.900976 13.31828 15 
-2.03456 9.790841 15 
-3.05184 14.68626 15 
0.6824241 9.976687 15 
1.023636 14.96503 15 
5.023194 14.13391 15 
3.348796 9.422609 15 
8.650205 12.25455 15 
5.766803 8.169699 15 
11.63567 9.466319 15 
7.757113 6.310879 15 
13.75817 5.976017 15 
9.172113 3.984011 15 
14.86029 2.0425 15 
9.906859 1.361666 15 
14.86029 -2.0425 15 
9.906859 -1.361666 15 
9.172113 -3.984011 15 
13.75817 -5.976017 15 
7.757113 -6.310879 15 
11.63567 -9.466319 15 
5.766803 -8.169699 15 
8.650205 -12.25455 15 
3.348796 -9.422609 15 
5.023194 -14.13391 15 
0.6824241 -9.976687 15 
1.023636 -14.96503 15 
-3.05184 -14.68626 15 
-2.03456 -9.790841 15 
-6.900976 -13.31828 15 
-4.60065 -8.878852 15 
-10.2383 -10.96254 15 
-6.825531 -7.30836 15 
-12.81629 -7.793759 15 
-8.544194 -5.195839 15 
-14.44376 -4.046952 15 
-5.740252 13.85819 5 
-8.333553 12.47204 5 
-8.333553 12.47204 10 
-10.6066 10.6066 10 
-12.47204 8.333553 10 
-13.85819 5.740252 10 
-14.71178 2.926355 10 
-15 -5.306417e-15 10 
-14.71178 -2.926355 10 
-15 -1.632477e-15 5 
-14.71178 -2.926355 5 
-5.740252 13.85819 10 
-2.926355 14.71178 5 
9.18485e-16 15 5 
2.926355 14.71178 5 
5.740252 13.85819 5 
8.333553 12.47204 5 
10.6066 10.6066 5 
8.333553 12.47204 10 
10.6066 10.6066 10 
-2.926355 14.71178 10 
9.18485e-16 15 10 
2.926355 14.71178 10 
5.740252 13.85819 10 
12.47204 8.333553 10 
13.85819 5.740252 10 
14.71178 2.926355 10 
14.71178 2.926355 5 
15 -3.469447e-15 5 
15 -3.469447e-15 10 
14.71178 -2.926355 5 
14.71178 -2.926355 10 
13.85819 -5.740252 5 
12.47204 -8.333553 5 
10.6066 -10.6066 5 
8.333553 -12.47204 5 
5.740252 -13.85819 5 
8.333553 -12.47204 10 
5.740252 -13.85819 10 
13.85819 -5.740252 10 
12.47204 -8.333553 10 
10.6066 -10.6066 10 
2.926355 -14.71178 10 
9.18485e-16 -15 10 
-2.926355 -14.71178 10 
-5.740252 -13.85819 10 
-5.740252 -13.85819 5 
-8.333553 -12.47204 5 
-8.333553 -12.47204 10 
-10.6066 -10.6066 5 
-12.47204 -8.333553 5 
-13.85819 -5.740252 5 
-10.6066 -10.6066 10 
-12.47204 -8.333553 10 
-13.85819 -5.740252 10 
-2.926355 -14.71178 5 
9.18485e-16 -15 5 
2.926355 -14.71178 5 
13.85819 5.740252 5 
12.47204 8.333553 5 
-10.6066 10.6066 5 
-12.47204 8.333553 5 
-13.85819 5.740252 5 
-14.71178 2.926355 5 
7.071068 -7.071068 18.75 
5.555702 -8.314696 18.75 
7.071068 -7.071068 22.5 
5.555702 -8.314696 22.5 
7.071068 -7.071068 26.25 
5.555702 -8.314696 26.25 
3.826834 -9.238795 26.25 
1.950903 -9.807853 26.25 
6.123234e-16 -10 26.25 
-1.950903 -9.807853 26.25 
-3.826834 -9.238795 26.25 
-3.826834 -9.238795 22.5 
-5.555702 -8.314696 22.5 
-5.555702 -8.314696 18.75 
-7.071068 -7.071068 18.75 
-8.314696 -5.555702 18.75 
-9.238795 -3.826834 18.75 
-9.807853 -1.950903 18.75 
-10 -2.2448e-15 18.75 
-9.807853 1.950903 18.75 
-10 -2.2448e-15 22.5 
-9.807853 1.950903 22.5 
-10 -4.694094e-15 26.25 
-9.807853 1.950903 26.25 
-3.826834 -9.238795 18.75 
-1.950903 -9.807853 22.5 
-1.950903 -9.807853 18.75 
6.123234e-16 -10 22.5 
6.123234e-16 -10 18.75 
1.950903 -9.807853 22.5 
1.950903 -9.807853 18.75 
3.826834 -9.238795 18.75 
8.314696 -5.555702 18.75 
8.314696 -5.555702 22.5 
9.238795 -3.826834 22.5 
9.238795 -3.826834 26.25 
9.807853 -1.950903 26.25 
9.238795 -3.826834 18.75 
9.807853 -1.950903 22.5 
10 -3.469447e-15 26.25 
9.807853 -1.950903 18.75 
10 -3.469447e-15 18.75 
9.807853 1.950903 18.75 
9.238795 3.826834 18.75 
8.314696 5.555702 18.75 
8.314696 5.555702 22.5 
7.071068 7.071068 22.5 
7.071068 7.071068 26.25 
5.555702 8.314696 26.25 
3.826834 9.238795 26.25 
1.950903 9.807853 26.25 
6.123234e-16 10 26.25 
-1.950903 9.807853 26.25 
-3.826834 9.238795 26.25 
-1.950903 9.807853 22.5 
-3.826834 9.238795 22.5 
-1.950903 9.807853 18.75 
-3.826834 9.238795 18.75 
7.071068 7.071068 18.75 
5.555702 8.314696 22.5 
5.555702 8.314696 18.75 
3.826834 9.238795 22.5 
3.826834 9.238795 18.75 
1.950903 9.807853 18.75 
6.123234e-16 10 18.75 
-5.555702 8.314696 18.75 
-7.071068 7.071068 18.75 
-8.314696 5.555702 18.75 
-9.238795 3.826834 18.75 
-9.238795 3.826834 22.5 
-9.238795 3.826834 26.25 
-8.314696 5.555702 26.25 
-7.071068 7.071068 26.25 
-5.555702 8.314696 26.25 
-5.555702 8.314696 22.5 
8.314696 5.555702 26.25 
9.238795 3.826834 22.5 
9.238795 3.826834 26.25 
9.807853 1.950903 22.5 
9.807853 1.950903 26.25 
8.314696 -5.555702 26.25 
-5.555702 -8.314696 26.25 
-7.071068 -7.071068 22.5 
-7.071068 -7.071068 26.25 
-8.314696 -5.555702 22.5 
-8.314696 -5.555702 26.25 
-9.238795 -3.826834 22.5 
-9.238795 -3.826834 26.25 
-9.807853 -1.950903 26.25 
-9.807853 -1.950903 22.5 
3.826834 -9.238795 22.5 
10 -3.469447e-15 22.5 
6.123234e-16 10 22.5 
1.950903 9.807853 22.5 
-7.071068 7.071068 22.5 
-8.314696 5.555702 22.5 
4.157348 -2.777851 28.125 
4.619398 -1.913417 28.125 
4.619398 -1.913417 26.25 
4.903926 -0.9754516 26.25 
4.903926 -0.9754516 24.375 
5 -3.469447e-15 24.375 
5 -3.469447e-15 22.5 
4.903926 0.9754516 22.5 
4.903926 0.9754516 20.625 
4.619398 1.913417 20.625 
4.619398 1.913417 18.75 
4.157348 2.777851 18.75 
4.157348 2.777851 16.875 
3.535534 3.535534 16.875 
3.535534 3.535534 15 
2.777851 4.157348 15 
2.777851 4.157348 13.125 
1.913417 4.619398 13.125 
1.913417 4.619398 11.25 
0.9754516 4.903926 11.25 
0.9754516 4.903926 9.375 
3.061617e-16 5 9.375 
3.061617e-16 5 7.5 
-0.9754516 4.903926 7.5 
-0.9754516 4.903926 5.625 
-1.913417 4.619398 5.625 
-1.913417 4.619398 3.75 
-2.777851 4.157348 3.75 
-2.777851 4.157348 1.875 
-3.535534 3.535534 1.875 
-4.157348 2.777851 1.875 
-4.619398 1.913417 1.875 
-4.903926 0.9754516 1.875 
-5 -4.08177e-15 1.875 
-4.903926 -0.9754516 1.875 
-5 -4.08177e-15 3.75 
-4.903926 -0.9754516 3.75 
-5 -4.08177e-15 5.625 
-4.903926 -0.9754516 5.625 
-5 -4.08177e-15 7.5 
-4.903926 -0.9754516 7.5 
-5 -4.08177e-15 9.375 
-4.903926 -0.9754516 9.375 
-5 -4.08177e-15 11.25 
-4.903926 -0.9754516 11.25 
-5 -4.08177e-15 13.125 
-4.903926 -0.9754516 13.125 
-5 -4.08177e-15 15 
-4.903926 -0.9754516 15 
-5 -4.08177e-15 16.875 
-4.903926 -0.9754516 16.875 
-5 -4.08177e-15 18.75 
-4.903926 -0.9754516 18.75 
-5 -4.08177e-15 20.625 
-4.903926 -0.9754516 20.625 
-5 -4.08177e-15 22.5 
-4.903926 -0.9754516 22.5 
-5 -4.08177e-15 24.375 
-4.903926 -0.9754516 24.375 
-5 -4.08177e-15 26.25 
-4.903926 -0.9754516 26.25 
-5 -2.857124e-15 28.125 
-4.903926 -0.9754516 28.125 
-1.913417 4.619398 1.875 
-0.9754516 4.903926 3.75 
3.061617e-16 5 5.625 
0.9754516 4.903926 7.5 
1.913417 4.619398 9.375 
2.777851 4.157348 11.25 
3.535534 3.535534 13.125 
4.157348 2.777851 15 
4.619398 1.913417 16.875 
4.903926 0.9754516 18.75 
5 -3.469447e-15 20.625 
4.903926 -0.9754516 22.5 
4.619398 -1.913417 24.375 
4.157348 -2.777851 26.25 
3.535534 -3.535534 28.125 
-0.9754516 4.903926 1.875 
3.061617e-16 5 3.75 
0.9754516 4.903926 5.625 
1.913417 4.619398 7.5 
2.777851 4.157348 9.375 
3.535534 3.535534 11.25 
4.157348 2.777851 13.125 
4.619398 1.913417 15 
4.903926 0.9754516 16.875 
5 -3.469447e-15 18.75 
4.903926 -0.9754516 20.625 
4.619398 -1.913417 22.5 
4.157348 -2.777851 24.375 
3.535534 -3.535534 26.25 
2.777851 -4.157348 28.125 
1.913417 -4.619398 28.125 
0.9754516 -4.903926 28.125 
3.061617e-16 -5 28.125 
-0.9754516 -4.903926 28.125 
3.061617e-16 -5 26.25 
-0.9754516 -4.903926 26.25 
3.061617e-16 -5 24.375 
-0.9754516 -4.903926 24.375 
3.061617e-16 -5 22.5 
-0.9754516 -4.903926 22.5 
3.061617e-16 -5 20.625 
-0.9754516 -4.903926 20.625 
3.061617e-16 -5 18.75 
-0.9754516 -4.903926 18.75 
3.061617e-16 -5 16.875 
-0.9754516 -4.903926 16.875 
3.061617e-16 -5 15 
-0.9754516 -4.903926 15 
3.061617e-16 -5 13.125 
-0.9754516 -4.903926 13.125 
3.061617e-16 -5 11.25 
-0.9754516 -4.903926 11.25 
3.061617e-16 -5 9.375 
-0.9754516 -4.903926 9.375 
3.061617e-16 -5 7.5 
-0.9754516 -4.903926 7.5 
3.061617e-16 -5 5.625 
-0.9754516 -4.903926 5.625 
3.061617e-16 -5 3.75 
-0.9754516 -4.903926 3.75 
3.061617e-16 -5 1.875 
-0.9754516 -4.903926 1.875 
-1.913417 -4.619398 1.875 
-2.777851 -4.157348 1.875 
-3.535534 -3.535534 1.875 
-4.157348 -2.777851 1.875 
-4.619398 -1.913417 1.875 
-4.619398 -1.913417 3.75 
3.061617e-16 5 1.875 
0.9754516 4.903926 1.875 
1.913417 4.619398 1.875 
2.777851 4.157348 1.875 
3.535534 3.535534 1.875 
3.535534 3.535534 3.75 
4.157348 2.777851 3.75 
4.157348 2.777851 5.625 
4.619398 1.913417 5.625 
4.619398 1.913417 7.5 
4.903926 0.9754516 7.5 
4.903926 0.9754516 9.375 
5 -3.469447e-15 9.375 
5 -3.469447e-15 11.25 
4.903926 -0.9754516 11.25 
4.903926 -0.9754516 13.125 
4.619398 -1.913417 13.125 
4.619398 -1.913417 15 
4.157348 -2.777851 15 
4.157348 -2.777851 16.875 
3.535534 -3.535534 16.875 
3.535534 -3.535534 18.75 
2.777851 -4.157348 18.75 
2.777851 -4.157348 20.625 
1.913417 -4.619398 20.625 
1.913417 -4.619398 22.5 
0.9754516 -4.903926 22.5 
0.9754516 -4.903926 24.375 
4.157348 2.777851 1.875 
4.619398 1.913417 3.75 
4.903926 0.9754516 5.625 
5 -3.469447e-15 7.5 
4.903926 -0.9754516 9.375 
4.619398 -1.913417 11.25 
4.157348 -2.777851 13.125 
3.535534 -3.535534 15 
2.777851 -4.157348 16.875 
1.913417 -4.619398 18.75 
0.9754516 -4.903926 20.625 
4.619398 1.913417 1.875 
4.903926 0.9754516 3.75 
5 -3.469447e-15 5.625 
4.903926 -0.9754516 7.5 
4.619398 -1.913417 9.375 
4.157348 -2.777851 11.25 
3.535534 -3.535534 13.125 
2.777851 -4.157348 15 
1.913417 -4.619398 16.875 
0.9754516 -4.903926 18.75 
4.903926 0.9754516 1.875 
5 -3.469447e-15 1.875 
4.903926 -0.9754516 1.875 
4.619398 -1.913417 1.875 
4.157348 -2.777851 1.875 
4.157348 -2.777851 3.75 
3.535534 -3.535534 3.75 
3.535534 -3.535534 5.625 
2.777851 -4.157348 5.625 
2.777851 -4.157348 7.5 
1.913417 -4.619398 7.5 
1.913417 -4.619398 9.375 
0.9754516 -4.903926 9.375 
0.9754516 -4.903926 11.25 
3.535534 -3.535534 1.875 
2.777851 -4.157348 3.75 
1.913417 -4.619398 5.625 
0.9754516 -4.903926 7.5 
2.777851 -4.157348 1.875 
1.913417 -4.619398 3.75 
0.9754516 -4.903926 5.625 
1.913417 -4.619398 1.875 
0.9754516 -4.903926 1.875 
-4.619398 -1.913417 28.125 
-4.157348 -2.777851 28.125 
-3.535534 -3.535534 28.125 
-2.777851 -4.157348 28.125 
-2.777851 -4.157348 26.25 
-1.913417 -4.619398 26.25 
-1.913417 -4.619398 24.375 
-1.913417 -4.619398 28.125 
4.903926 -0.9754516 28.125 
5 -3.469447e-15 28.125 
4.903926 0.9754516 28.125 
4.619398 1.913417 28.125 
4.157348 2.777851 28.125 
4.157348 2.777851 26.25 
3.535534 3.535534 26.25 
3.535534 3.535534 24.375 
2.777851 4.157348 24.375 
2.777851 4.157348 22.5 
1.913417 4.619398 22.5 
1.913417 4.619398 20.625 
0.9754516 4.903926 20.625 
0.9754516 4.903926 18.75 
3.061617e-16 5 18.75 
3.061617e-16 5 16.875 
-0.9754516 4.903926 16.875 
-0.9754516 4.903926 15 
-1.913417 4.619398 15 
-1.913417 4.619398 13.125 
-2.777851 4.157348 13.125 
-2.777851 4.157348 11.25 
-3.535534 3.535534 11.25 
-3.535534 3.535534 9.375 
-4.157348 2.777851 9.375 
-4.157348 2.777851 7.5 
-4.619398 1.913417 7.5 
-4.619398 1.913417 5.625 
-4.903926 0.9754516 5.625 
-4.903926 0.9754516 3.75 
3.535534 3.535534 28.125 
2.777851 4.157348 26.25 
1.913417 4.619398 24.375 
0.9754516 4.903926 22.5 
3.061617e-16 5 20.625 
-0.9754516 4.903926 18.75 
-1.913417 4.619398 16.875 
-2.777851 4.157348 15 
-3.535534 3.535534 13.125 
-4.157348 2.777851 11.25 
-4.619398 1.913417 9.375 
-4.903926 0.9754516 7.5 
2.777851 4.157348 28.125 
1.913417 4.619398 26.25 
0.9754516 4.903926 24.375 
3.061617e-16 5 22.5 
-0.9754516 4.903926 20.625 
-1.913417 4.619398 18.75 
-2.777851 4.157348 16.875 
-3.535534 3.535534 15 
-4.157348 2.777851 13.125 
-4.619398 1.913417 11.25 
-4.903926 0.9754516 9.375 
1.913417 4.619398 28.125 
0.9754516 4.903926 28.125 
3.061617e-16 5 28.125 
-0.9754516 4.903926 28.125 
-1.913417 4.619398 28.125 
-1.913417 4.619398 26.25 
-2.777851 4.157348 26.25 
-2.777851 4.157348 24.375 
-3.535534 3.535534 24.375 
-3.535534 3.535534 22.5 
-4.157348 2.777851 22.5 
-4.157348 2.777851 20.625 
-4.619398 1.913417 20.625 
-4.619398 1.913417 18.75 
-4.903926 0.9754516 18.75 
-4.903926 0.9754516 16.875 
-2.777851 4.157348 28.125 
-3.535534 3.535534 26.25 
-4.157348 2.777851 24.375 
-4.619398 1.913417 22.5 
-4.903926 0.9754516 20.625 
-3.535534 3.535534 28.125 
-4.157348 2.777851 26.25 
-4.619398 1.913417 24.375 
-4.903926 0.9754516 22.5 
-4.157348 2.777851 28.125 
-4.619398 1.913417 26.25 
-4.903926 0.9754516 24.375 
-4.619398 1.913417 28.125 
-4.903926 0.9754516 28.125 
-4.903926 0.9754516 11.25 
-4.903926 0.9754516 13.125 
-4.903926 0.9754516 15 
-4.903926 0.9754516 26.25 
-4.619398 1.913417 3.75 
-4.157348 2.777851 5.625 
-3.535534 3.535534 7.5 
-2.777851 4.157348 9.375 
-1.913417 4.619398 11.25 
-0.9754516 4.903926 13.125 
3.061617e-16 5 15 
0.9754516 4.903926 16.875 
1.913417 4.619398 18.75 
2.777851 4.157348 20.625 
3.535534 3.535534 22.5 
4.157348 2.777851 24.375 
4.619398 1.913417 26.25 
-4.619398 1.913417 13.125 
-4.619398 1.913417 15 
-4.619398 1.913417 16.875 
-4.157348 2.777851 3.75 
-3.535534 3.535534 5.625 
-2.777851 4.157348 7.5 
-1.913417 4.619398 9.375 
-0.9754516 4.903926 11.25 
3.061617e-16 5 13.125 
0.9754516 4.903926 15 
1.913417 4.619398 16.875 
2.777851 4.157348 18.75 
3.535534 3.535534 20.625 
4.157348 2.777851 22.5 
4.619398 1.913417 24.375 
4.903926 0.9754516 26.25 
-4.157348 2.777851 15 
-4.157348 2.777851 16.875 
-4.157348 2.777851 18.75 
-3.535534 3.535534 3.75 
-2.777851 4.157348 5.625 
-1.913417 4.619398 7.5 
-0.9754516 4.903926 9.375 
3.061617e-16 5 11.25 
0.9754516 4.903926 13.125 
1.913417 4.619398 15 
2.777851 4.157348 16.875 
3.535534 3.535534 18.75 
4.157348 2.777851 20.625 
4.619398 1.913417 22.5 
4.903926 0.9754516 24.375 
5 -3.469447e-15 26.25 
-3.535534 3.535534 16.875 
-3.535534 3.535534 18.75 
-3.535534 3.535534 20.625 
-2.777851 4.157348 18.75 
-2.777851 4.157348 20.625 
-1.913417 4.619398 20.625 
-2.777851 4.157348 22.5 
-1.913417 4.619398 22.5 
-0.9754516 4.903926 22.5 
-1.913417 4.619398 24.375 
-0.9754516 4.903926 26.25 
-0.9754516 4.903926 24.375 
3.061617e-16 5 26.25 
3.061617e-16 5 24.375 
0.9754516 4.903926 26.25 
2.777851 4.157348 3.75 
1.913417 4.619398 3.75 
0.9754516 4.903926 3.75 
1.913417 4.619398 5.625 
2.777851 4.157348 7.5 
3.535534 3.535534 9.375 
4.157348 2.777851 11.25 
4.619398 1.913417 13.125 
4.903926 0.9754516 15 
5 -3.469447e-15 16.875 
4.903926 -0.9754516 18.75 
4.619398 -1.913417 20.625 
4.157348 -2.777851 22.5 
3.535534 -3.535534 24.375 
2.777851 -4.157348 26.25 
2.777851 4.157348 5.625 
3.535534 3.535534 7.5 
4.157348 2.777851 9.375 
4.619398 1.913417 11.25 
4.903926 0.9754516 13.125 
5 -3.469447e-15 15 
4.903926 -0.9754516 16.875 
4.619398 -1.913417 18.75 
4.157348 -2.777851 20.625 
3.535534 -3.535534 22.5 
2.777851 -4.157348 24.375 
1.913417 -4.619398 26.25 
3.535534 3.535534 5.625 
4.157348 2.777851 7.5 
4.619398 1.913417 9.375 
4.903926 0.9754516 11.25 
5 -3.469447e-15 13.125 
4.903926 -0.9754516 15 
4.619398 -1.913417 16.875 
4.157348 -2.777851 18.75 
3.535534 -3.535534 20.625 
2.777851 -4.157348 22.5 
1.913417 -4.619398 24.375 
0.9754516 -4.903926 26.25 
4.619398 -1.913417 3.75 
4.903926 -0.9754516 3.75 
5 -3.469447e-15 3.75 
4.903926 -0.9754516 5.625 
4.619398 -1.913417 7.5 
4.157348 -2.777851 9.375 
3.535534 -3.535534 11.25 
2.777851 -4.157348 13.125 
1.913417 -4.619398 15 
0.9754516 -4.903926 16.875 
4.619398 -1.913417 5.625 
4.157348 -2.777851 7.5 
3.535534 -3.535534 9.375 
2.777851 -4.157348 11.25 
1.913417 -4.619398 13.125 
0.9754516 -4.903926 15 
4.157348 -2.777851 5.625 
3.535534 -3.535534 7.5 
2.777851 -4.157348 9.375 
1.913417 -4.619398 11.25 
0.9754516 -4.903926 13.125 
0.9754516 -4.903926 3.75 
-1.913417 -4.619398 3.75 
-2.777851 -4.157348 3.75 
-3.535534 -3.535534 3.75 
-4.157348 -2.777851 3.75 
-1.913417 -4.619398 5.625 
-2.777851 -4.157348 5.625 
-3.535534 -3.535534 5.625 
-4.157348 -2.777851 5.625 
-4.619398 -1.913417 5.625 
-1.913417 -4.619398 7.5 
-2.777851 -4.157348 7.5 
-3.535534 -3.535534 7.5 
-4.157348 -2.777851 7.5 
-4.619398 -1.913417 7.5 
-1.913417 -4.619398 9.375 
-2.777851 -4.157348 9.375 
-3.535534 -3.535534 9.375 
-4.157348 -2.777851 9.375 
-4.619398 -1.913417 9.375 
-1.913417 -4.619398 11.25 
-2.777851 -4.157348 11.25 
-3.535534 -3.535534 11.25 
-4.157348 -2.777851 11.25 
-4.619398 -1.913417 11.25 
-1.913417 -4.619398 13.125 
-2.777851 -4.157348 13.125 
-3.535534 -3.535534 13.125 
-4.157348 -2.777851 13.125 
-4.619398 -1.913417 13.125 
-1.913417 -4.619398 15 
-2.777851 -4.157348 15 
-3.535534 -3.535534 15 
-4.157348 -2.777851 15 
-4.619398 -1.913417 15 
-1.913417 -4.619398 16.875 
-2.777851 -4.157348 16.875 
-3.535534 -3.535534 16.875 
-4.157348 -2.777851 16.875 
-4.619398 -1.913417 16.875 
-1.913417 -4.619398 18.75 
-2.777851 -4.157348 18.75 
-3.535534 -3.535534 18.75 
-4.157348 -2.777851 18.75 
-4.619398 -1.913417 18.75 
-1.913417 -4.619398 20.625 
-2.777851 -4.157348 20.625 
-3.535534 -3.535534 20.625 
-4.157348 -2.777851 20.625 
-4.619398 -1.913417 20.625 
-1.913417 -4.619398 22.5 
-2.777851 -4.157348 22.5 
-3.535534 -3.535534 22.5 
-4.157348 -2.777851 22.5 
-4.619398 -1.913417 22.5 
-2.777851 -4.157348 24.375 
-3.535534 -3.535534 26.25 
-3.535534 -3.535534 24.375 
-4.157348 -2.777851 26.25 
-4.157348 -2.777851 24.375 
-4.619398 -1.913417 26.25 
-4.619398 -1.913417 24.375 
3 0 1 2 
3 2 1 3 
3 2 3 4 
3 4 3 5 
3 4 5 6 
3 6 5 7 
3 6 7 8 
3 8 7 9 
3 8 9 10 
3 10 9 11 
3 10 11 12 
3 12 11 13 
3 12 13 14 
3 14 13 15 
3 13 16 15 
3 15 16 17 
3 16 18 17 
3 17 18 19 
3 18 20 19 
3 19 20 21 
3 20 22 21 
3 21 22 23 
3 22 24 23 
3 23 24 25 
3 24 26 25 
3 25 26 27 
3 25 27 28 
3 28 27 29 
3 28 29 30 
3 30 29 31 
3 30 31 32 
3 32 31 33 
3 32 33 34 
3 34 33 35 
3 34 35 36 
3 36 35 37 
3 35 38 37 
3 37 38 39 
3 38 40 39 
3 39 40 41 
3 40 42 41 
3 41 42 43 
3 42 44 43 
3 43 44 45 
3 44 0 45 
3 45 0 2 
3 46 47 48 
3 48 47 49 
3 48 49 50 
3 50 49 51 
3 50 51 52 
3 52 51 53 
3 52 53 54 
3 54 53 55 
3 54 55 56 
3 56 55 57 
3 56 57 58 
3 58 57 59 
3 58 59 60 
3 60 59 61 
3 60 61 62 
3 46 63 47 
3 47 63 64 
3 63 65 64 
3 64 65 66 
3 65 67 66 
3 66 67 68 
3 67 69 68 
3 68 69 70 
3 69 71 70 
3 70 71 72 
3 71 73 72 
3 72 73 74 
3 74 73 75 
3 75 73 76 
3 75 76 77 
3 77 76 78 
3 77 78 79 
3 79 78 80 
3 79 80 81 
3 81 80 82 
3 81 82 83 
3 83 82 84 
3 83 84 85 
3 83 85 86 
3 86 85 87 
3 86 87 88 
3 88 87 89 
3 88 89 90 
3 90 89 91 
3 90 91 62 
3 62 91 60 
3 92 93 94 
3 94 93 95 
3 94 95 96 
3 96 95 97 
3 96 97 98 
3 98 97 99 
3 98 99 100 
3 100 99 101 
3 100 101 102 
3 102 101 103 
3 102 103 104 
3 104 103 105 
3 104 105 106 
3 106 105 107 
3 105 108 107 
3 107 108 109 
3 108 110 109 
3 109 110 111 
3 110 112 111 
3 111 112 113 
3 112 114 113 
3 113 114 115 
3 114 116 115 
3 115 116 117 
3 116 118 117 
3 117 118 119 
3 117 119 120 
3 120 119 121 
3 120 121 122 
3 122 121 123 
3 122 123 124 
3 124 123 125 
3 124 125 126 
3 126 125 127 
3 126 127 128 
3 128 127 129 
3 127 130 129 
3 129 130 131 
3 130 132 131 
3 131 132 133 
3 132 134 133 
3 133 134 135 
3 134 136 135 
3 135 136 137 
3 136 92 137 
3 137 92 94 
3 48 50 138 
3 138 50 139 
3 138 139 140 
3 140 139 141 
3 140 141 100 
3 100 141 142 
3 100 142 98 
3 98 142 143 
3 98 143 96 
3 96 143 144 
3 96 144 94 
3 94 144 145 
3 94 145 146 
3 146 145 147 
3 146 147 148 
3 148 147 58 
3 148 58 60 
3 100 102 140 
3 140 102 149 
3 140 149 138 
3 138 149 150 
3 138 150 48 
3 48 150 151 
3 48 151 46 
3 46 151 152 
3 46 152 63 
3 63 152 153 
3 63 153 65 
3 65 153 154 
3 65 154 155 
3 155 154 156 
3 155 156 157 
3 157 156 109 
3 157 109 111 
3 102 104 149 
3 149 104 158 
3 149 158 150 
3 150 158 151 
3 158 104 159 
3 159 104 106 
3 159 106 160 
3 160 106 107 
3 160 107 161 
3 161 107 109 
3 161 109 156 
3 157 111 162 
3 162 111 113 
3 162 113 163 
3 163 113 164 
3 163 164 165 
3 165 164 166 
3 165 166 71 
3 71 166 73 
3 113 115 164 
3 164 115 167 
3 164 167 166 
3 166 167 168 
3 166 168 73 
3 73 168 76 
3 115 117 167 
3 167 117 169 
3 167 169 168 
3 168 169 170 
3 168 170 76 
3 76 170 171 
3 76 171 78 
3 78 171 172 
3 78 172 80 
3 80 172 173 
3 80 173 174 
3 174 173 175 
3 174 175 176 
3 176 175 124 
3 176 124 126 
3 117 120 169 
3 169 120 177 
3 169 177 170 
3 170 177 171 
3 177 120 178 
3 178 120 122 
3 178 122 179 
3 179 122 124 
3 179 124 175 
3 176 126 180 
3 180 126 128 
3 180 128 181 
3 181 128 129 
3 181 129 182 
3 182 129 183 
3 182 183 184 
3 184 183 185 
3 184 185 87 
3 87 185 89 
3 129 131 183 
3 183 131 186 
3 183 186 185 
3 185 186 187 
3 185 187 89 
3 89 187 188 
3 89 188 91 
3 91 188 189 
3 91 189 60 
3 60 189 148 
3 131 133 186 
3 186 133 190 
3 186 190 187 
3 187 190 188 
3 133 135 190 
3 190 135 191 
3 190 191 188 
3 188 191 189 
3 191 135 192 
3 192 135 137 
3 192 137 146 
3 146 137 94 
3 87 85 184 
3 184 85 193 
3 184 193 182 
3 182 193 181 
3 85 84 193 
3 193 84 194 
3 193 194 181 
3 181 194 180 
3 194 84 195 
3 195 84 82 
3 195 82 174 
3 174 82 80 
3 71 69 165 
3 165 69 196 
3 165 196 163 
3 163 196 162 
3 196 69 197 
3 197 69 67 
3 197 67 155 
3 155 67 65 
3 50 52 139 
3 139 52 198 
3 139 198 141 
3 141 198 142 
3 52 54 198 
3 198 54 199 
3 198 199 142 
3 142 199 143 
3 199 54 200 
3 200 54 56 
3 200 56 201 
3 201 56 58 
3 201 58 147 
3 147 145 201 
3 201 145 144 
3 201 144 200 
3 200 144 143 
3 200 143 199 
3 156 154 161 
3 161 154 153 
3 161 153 160 
3 160 153 152 
3 160 152 159 
3 159 152 151 
3 159 151 158 
3 155 157 197 
3 197 157 162 
3 197 162 196 
3 172 171 178 
3 178 171 177 
3 173 172 179 
3 179 172 178 
3 175 173 179 
3 174 176 195 
3 195 176 180 
3 195 180 194 
3 148 189 192 
3 192 189 191 
3 146 148 192 
3 123 202 203 
3 203 202 204 
3 203 204 205 
3 205 204 206 
3 205 206 207 
3 207 206 32 
3 207 32 208 
3 208 32 34 
3 208 34 209 
3 209 34 36 
3 209 36 210 
3 210 36 37 
3 210 37 211 
3 211 37 212 
3 211 212 213 
3 213 212 214 
3 213 214 215 
3 215 214 216 
3 215 216 134 
3 134 216 217 
3 134 217 136 
3 136 217 218 
3 136 218 92 
3 92 218 219 
3 92 219 93 
3 93 219 220 
3 93 220 221 
3 221 220 222 
3 221 222 223 
3 223 222 224 
3 223 224 225 
3 225 224 2 
3 225 2 4 
3 134 132 215 
3 215 132 226 
3 215 226 213 
3 213 226 227 
3 213 227 211 
3 211 227 210 
3 132 130 226 
3 226 130 228 
3 226 228 227 
3 227 228 229 
3 227 229 210 
3 210 229 209 
3 130 127 228 
3 228 127 230 
3 228 230 229 
3 229 230 231 
3 229 231 209 
3 209 231 208 
3 230 127 232 
3 232 127 125 
3 232 125 233 
3 233 125 123 
3 233 123 203 
3 123 121 202 
3 202 121 234 
3 202 234 235 
3 235 234 236 
3 235 236 237 
3 237 236 238 
3 237 238 28 
3 28 238 25 
3 121 119 234 
3 234 119 239 
3 234 239 236 
3 236 239 240 
3 236 240 238 
3 238 240 241 
3 238 241 25 
3 25 241 23 
3 239 119 242 
3 242 119 118 
3 242 118 243 
3 243 118 116 
3 243 116 244 
3 244 116 114 
3 244 114 245 
3 245 114 246 
3 245 246 247 
3 247 246 248 
3 247 248 249 
3 249 248 250 
3 249 250 17 
3 17 250 251 
3 17 251 15 
3 15 251 252 
3 15 252 14 
3 14 252 253 
3 14 253 12 
3 12 253 254 
3 12 254 255 
3 255 254 256 
3 255 256 257 
3 257 256 258 
3 257 258 259 
3 259 258 103 
3 259 103 101 
3 114 112 246 
3 246 112 260 
3 246 260 248 
3 248 260 261 
3 248 261 250 
3 250 261 251 
3 112 110 260 
3 260 110 262 
3 260 262 261 
3 261 262 263 
3 261 263 251 
3 251 263 252 
3 262 110 264 
3 264 110 108 
3 264 108 265 
3 265 108 105 
3 265 105 266 
3 266 105 103 
3 266 103 258 
3 259 101 267 
3 267 101 99 
3 267 99 268 
3 268 99 97 
3 268 97 269 
3 269 97 270 
3 269 270 271 
3 271 270 223 
3 271 223 225 
3 97 95 270 
3 270 95 221 
3 270 221 223 
3 95 93 221 
3 225 4 272 
3 272 4 6 
3 272 6 273 
3 273 6 8 
3 273 8 274 
3 274 8 275 
3 274 275 276 
3 276 275 257 
3 276 257 259 
3 8 10 275 
3 275 10 255 
3 275 255 257 
3 10 12 255 
3 17 19 249 
3 249 19 277 
3 249 277 247 
3 247 277 278 
3 247 278 245 
3 245 278 244 
3 19 21 277 
3 277 21 279 
3 277 279 278 
3 278 279 280 
3 278 280 244 
3 244 280 243 
3 279 21 281 
3 281 21 23 
3 281 23 241 
3 237 28 282 
3 282 28 30 
3 282 30 206 
3 206 30 32 
3 37 39 212 
3 212 39 283 
3 212 283 214 
3 214 283 284 
3 214 284 216 
3 216 284 217 
3 39 41 283 
3 283 41 285 
3 283 285 284 
3 284 285 286 
3 284 286 217 
3 217 286 218 
3 41 43 285 
3 285 43 287 
3 285 287 286 
3 286 287 288 
3 286 288 218 
3 218 288 219 
3 287 43 289 
3 289 43 45 
3 289 45 290 
3 290 45 2 
3 290 2 224 
3 222 220 291 
3 291 220 219 
3 291 219 288 
3 224 222 290 
3 290 222 291 
3 290 291 289 
3 289 291 288 
3 289 288 287 
3 230 232 231 
3 231 232 292 
3 231 292 208 
3 208 292 207 
3 232 233 292 
3 292 233 205 
3 292 205 207 
3 202 235 204 
3 204 235 282 
3 204 282 206 
3 203 205 233 
3 282 235 237 
3 243 293 242 
3 242 293 240 
3 242 240 239 
3 281 241 293 
3 293 241 240 
3 281 293 280 
3 280 293 243 
3 281 280 279 
3 258 256 266 
3 266 256 294 
3 266 294 265 
3 265 294 295 
3 265 295 264 
3 264 295 263 
3 264 263 262 
3 253 252 295 
3 295 252 263 
3 254 253 294 
3 294 253 295 
3 256 254 294 
3 259 267 276 
3 276 267 296 
3 276 296 274 
3 274 296 273 
3 267 268 296 
3 296 268 297 
3 296 297 273 
3 273 297 272 
3 269 271 297 
3 297 271 272 
3 272 271 225 
3 269 297 268 
3 29 27 298 
3 298 27 299 
3 298 299 300 
3 300 299 301 
3 300 301 302 
3 302 301 303 
3 302 303 304 
3 304 303 305 
3 304 305 306 
3 306 305 307 
3 306 307 308 
3 308 307 309 
3 308 309 310 
3 310 309 311 
3 310 311 312 
3 312 311 313 
3 312 313 314 
3 314 313 315 
3 314 315 316 
3 316 315 317 
3 316 317 318 
3 318 317 319 
3 318 319 320 
3 320 319 321 
3 320 321 322 
3 322 321 323 
3 322 323 324 
3 324 323 325 
3 324 325 326 
3 326 325 327 
3 326 327 53 
3 53 327 328 
3 53 328 55 
3 55 328 329 
3 55 329 57 
3 57 329 330 
3 57 330 59 
3 59 330 331 
3 59 331 332 
3 332 331 333 
3 332 333 334 
3 334 333 335 
3 334 335 336 
3 336 335 337 
3 336 337 338 
3 338 337 339 
3 338 339 340 
3 340 339 341 
3 340 341 342 
3 342 341 343 
3 342 343 344 
3 344 343 345 
3 344 345 346 
3 346 345 347 
3 346 347 348 
3 348 347 349 
3 348 349 350 
3 350 349 351 
3 350 351 352 
3 352 351 353 
3 352 353 354 
3 354 353 355 
3 354 355 356 
3 356 355 357 
3 356 357 358 
3 358 357 359 
3 358 359 360 
3 360 359 1 
3 360 1 0 
3 53 51 326 
3 326 51 361 
3 326 361 324 
3 324 361 362 
3 324 362 322 
3 322 362 363 
3 322 363 320 
3 320 363 364 
3 320 364 318 
3 318 364 365 
3 318 365 316 
3 316 365 366 
3 316 366 314 
3 314 366 367 
3 314 367 312 
3 312 367 368 
3 312 368 310 
3 310 368 369 
3 310 369 308 
3 308 369 370 
3 308 370 306 
3 306 370 371 
3 306 371 304 
3 304 371 372 
3 304 372 302 
3 302 372 373 
3 302 373 300 
3 300 373 374 
3 300 374 298 
3 298 374 375 
3 298 375 29 
3 29 375 31 
3 51 49 361 
3 361 49 376 
3 361 376 362 
3 362 376 377 
3 362 377 363 
3 363 377 378 
3 363 378 364 
3 364 378 379 
3 364 379 365 
3 365 379 380 
3 365 380 366 
3 366 380 381 
3 366 381 367 
3 367 381 382 
3 367 382 368 
3 368 382 383 
3 368 383 369 
3 369 383 384 
3 369 384 370 
3 370 384 385 
3 370 385 371 
3 371 385 386 
3 371 386 372 
3 372 386 387 
3 372 387 373 
3 373 387 388 
3 373 388 374 
3 374 388 389 
3 374 389 375 
3 375 389 390 
3 375 390 31 
3 31 390 391 
3 31 391 33 
3 33 391 392 
3 33 392 35 
3 35 392 393 
3 35 393 394 
3 394 393 395 
3 394 395 396 
3 396 395 397 
3 396 397 398 
3 398 397 399 
3 398 399 400 
3 400 399 401 
3 400 401 402 
3 402 401 403 
3 402 403 404 
3 404 403 405 
3 404 405 406 
3 406 405 407 
3 406 407 408 
3 408 407 409 
3 408 409 410 
3 410 409 411 
3 410 411 412 
3 412 411 413 
3 412 413 414 
3 414 413 415 
3 414 415 416 
3 416 415 417 
3 416 417 418 
3 418 417 419 
3 418 419 420 
3 420 419 421 
3 420 421 422 
3 422 421 86 
3 422 86 423 
3 423 86 88 
3 423 88 424 
3 424 88 90 
3 424 90 425 
3 425 90 62 
3 425 62 426 
3 426 62 427 
3 426 427 428 
3 428 427 334 
3 428 334 336 
3 376 49 429 
3 429 49 47 
3 429 47 430 
3 430 47 64 
3 430 64 431 
3 431 64 66 
3 431 66 432 
3 432 66 433 
3 432 433 434 
3 434 433 435 
3 434 435 436 
3 436 435 437 
3 436 437 438 
3 438 437 439 
3 438 439 440 
3 440 439 441 
3 440 441 442 
3 442 441 443 
3 442 443 444 
3 444 443 445 
3 444 445 446 
3 446 445 447 
3 446 447 448 
3 448 447 449 
3 448 449 450 
3 450 449 451 
3 450 451 452 
3 452 451 453 
3 452 453 454 
3 454 453 455 
3 454 455 456 
3 456 455 397 
3 456 397 395 
3 66 68 433 
3 433 68 457 
3 433 457 435 
3 435 457 458 
3 435 458 437 
3 437 458 459 
3 437 459 439 
3 439 459 460 
3 439 460 441 
3 441 460 461 
3 441 461 443 
3 443 461 462 
3 443 462 445 
3 445 462 463 
3 445 463 447 
3 447 463 464 
3 447 464 449 
3 449 464 465 
3 449 465 451 
3 451 465 466 
3 451 466 453 
3 453 466 467 
3 453 467 455 
3 455 467 399 
3 455 399 397 
3 68 70 457 
3 457 70 468 
3 457 468 458 
3 458 468 469 
3 458 469 459 
3 459 469 470 
3 459 470 460 
3 460 470 471 
3 460 471 461 
3 461 471 472 
3 461 472 462 
3 462 472 473 
3 462 473 463 
3 463 473 474 
3 463 474 464 
3 464 474 475 
3 464 475 465 
3 465 475 476 
3 465 476 466 
3 466 476 477 
3 466 477 467 
3 467 477 401 
3 467 401 399 
3 468 70 478 
3 478 70 72 
3 478 72 479 
3 479 72 74 
3 479 74 480 
3 480 74 75 
3 480 75 481 
3 481 75 482 
3 481 482 483 
3 483 482 484 
3 483 484 485 
3 485 484 486 
3 485 486 487 
3 487 486 488 
3 487 488 489 
3 489 488 490 
3 489 490 491 
3 491 490 411 
3 491 411 409 
3 75 77 482 
3 482 77 492 
3 482 492 484 
3 484 492 493 
3 484 493 486 
3 486 493 494 
3 486 494 488 
3 488 494 495 
3 488 495 490 
3 490 495 413 
3 490 413 411 
3 77 79 492 
3 492 79 496 
3 492 496 493 
3 493 496 497 
3 493 497 494 
3 494 497 498 
3 494 498 495 
3 495 498 415 
3 495 415 413 
3 496 79 499 
3 499 79 81 
3 499 81 500 
3 500 81 83 
3 500 83 421 
3 421 83 86 
3 62 61 427 
3 427 61 332 
3 427 332 334 
3 61 59 332 
3 360 0 501 
3 501 0 44 
3 501 44 502 
3 502 44 42 
3 502 42 503 
3 503 42 504 
3 503 504 505 
3 505 504 506 
3 505 506 507 
3 507 506 398 
3 507 398 400 
3 42 40 504 
3 504 40 508 
3 504 508 506 
3 506 508 396 
3 506 396 398 
3 40 38 508 
3 508 38 394 
3 508 394 396 
3 38 35 394 
3 299 27 509 
3 509 27 26 
3 509 26 510 
3 510 26 24 
3 510 24 511 
3 511 24 22 
3 511 22 512 
3 512 22 513 
3 512 513 514 
3 514 513 515 
3 514 515 516 
3 516 515 517 
3 516 517 518 
3 518 517 519 
3 518 519 520 
3 520 519 521 
3 520 521 522 
3 522 521 523 
3 522 523 524 
3 524 523 525 
3 524 525 526 
3 526 525 527 
3 526 527 528 
3 528 527 529 
3 528 529 530 
3 530 529 531 
3 530 531 532 
3 532 531 533 
3 532 533 534 
3 534 533 535 
3 534 535 536 
3 536 535 537 
3 536 537 538 
3 538 537 333 
3 538 333 331 
3 22 20 513 
3 513 20 539 
3 513 539 515 
3 515 539 540 
3 515 540 517 
3 517 540 541 
3 517 541 519 
3 519 541 542 
3 519 542 521 
3 521 542 543 
3 521 543 523 
3 523 543 544 
3 523 544 525 
3 525 544 545 
3 525 545 527 
3 527 545 546 
3 527 546 529 
3 529 546 547 
3 529 547 531 
3 531 547 548 
3 531 548 533 
3 533 548 549 
3 533 549 535 
3 535 549 550 
3 535 550 537 
3 537 550 335 
3 537 335 333 
3 20 18 539 
3 539 18 551 
3 539 551 540 
3 540 551 552 
3 540 552 541 
3 541 552 553 
3 541 553 542 
3 542 553 554 
3 542 554 543 
3 543 554 555 
3 543 555 544 
3 544 555 556 
3 544 556 545 
3 545 556 557 
3 545 557 546 
3 546 557 558 
3 546 558 547 
3 547 558 559 
3 547 559 548 
3 548 559 560 
3 548 560 549 
3 549 560 561 
3 549 561 550 
3 550 561 337 
3 550 337 335 
3 551 18 562 
3 562 18 16 
3 562 16 563 
3 563 16 13 
3 563 13 564 
3 564 13 11 
3 564 11 565 
3 565 11 566 
3 565 566 567 
3 567 566 568 
3 567 568 569 
3 569 568 570 
3 569 570 571 
3 571 570 572 
3 571 572 573 
3 573 572 574 
3 573 574 575 
3 575 574 576 
3 575 576 577 
3 577 576 347 
3 577 347 345 
3 11 9 566 
3 566 9 578 
3 566 578 568 
3 568 578 579 
3 568 579 570 
3 570 579 580 
3 570 580 572 
3 572 580 581 
3 572 581 574 
3 574 581 582 
3 574 582 576 
3 576 582 349 
3 576 349 347 
3 9 7 578 
3 578 7 583 
3 578 583 579 
3 579 583 584 
3 579 584 580 
3 580 584 585 
3 580 585 581 
3 581 585 586 
3 581 586 582 
3 582 586 351 
3 582 351 349 
3 7 5 583 
3 583 5 587 
3 583 587 584 
3 584 587 588 
3 584 588 585 
3 585 588 589 
3 585 589 586 
3 586 589 353 
3 586 353 351 
3 587 5 590 
3 590 5 3 
3 590 3 591 
3 591 3 1 
3 591 1 359 
3 337 561 339 
3 339 561 592 
3 339 592 341 
3 341 592 593 
3 341 593 343 
3 343 593 594 
3 343 594 345 
3 345 594 577 
3 353 589 355 
3 355 589 595 
3 355 595 357 
3 357 595 591 
3 357 591 359 
3 331 330 538 
3 538 330 596 
3 538 596 536 
3 536 596 597 
3 536 597 534 
3 534 597 598 
3 534 598 532 
3 532 598 599 
3 532 599 530 
3 530 599 600 
3 530 600 528 
3 528 600 601 
3 528 601 526 
3 526 601 602 
3 526 602 524 
3 524 602 603 
3 524 603 522 
3 522 603 604 
3 522 604 520 
3 520 604 605 
3 520 605 518 
3 518 605 606 
3 518 606 516 
3 516 606 607 
3 516 607 514 
3 514 607 608 
3 514 608 512 
3 512 608 511 
3 561 560 592 
3 592 560 609 
3 592 609 593 
3 593 609 610 
3 593 610 594 
3 594 610 611 
3 594 611 577 
3 577 611 575 
3 589 588 595 
3 595 588 590 
3 595 590 591 
3 330 329 596 
3 596 329 612 
3 596 612 597 
3 597 612 613 
3 597 613 598 
3 598 613 614 
3 598 614 599 
3 599 614 615 
3 599 615 600 
3 600 615 616 
3 600 616 601 
3 601 616 617 
3 601 617 602 
3 602 617 618 
3 602 618 603 
3 603 618 619 
3 603 619 604 
3 604 619 620 
3 604 620 605 
3 605 620 621 
3 605 621 606 
3 606 621 622 
3 606 622 607 
3 607 622 623 
3 607 623 608 
3 608 623 624 
3 608 624 511 
3 511 624 510 
3 560 559 609 
3 609 559 625 
3 609 625 610 
3 610 625 626 
3 610 626 611 
3 611 626 627 
3 611 627 575 
3 575 627 573 
3 590 588 587 
3 329 328 612 
3 612 328 628 
3 612 628 613 
3 613 628 629 
3 613 629 614 
3 614 629 630 
3 614 630 615 
3 615 630 631 
3 615 631 616 
3 616 631 632 
3 616 632 617 
3 617 632 633 
3 617 633 618 
3 618 633 634 
3 618 634 619 
3 619 634 635 
3 619 635 620 
3 620 635 636 
3 620 636 621 
3 621 636 637 
3 621 637 622 
3 622 637 638 
3 622 638 623 
3 623 638 639 
3 623 639 624 
3 624 639 640 
3 624 640 510 
3 510 640 509 
3 559 558 625 
3 625 558 641 
3 625 641 626 
3 626 641 642 
3 626 642 627 
3 627 642 643 
3 627 643 573 
3 573 643 571 
3 327 325 628 
3 628 325 629 
3 630 629 323 
3 323 629 325 
3 642 641 644 
3 644 641 557 
3 644 557 556 
3 643 642 645 
3 645 642 644 
3 645 644 646 
3 646 644 556 
3 646 556 555 
3 571 643 647 
3 647 643 645 
3 647 645 648 
3 648 645 646 
3 648 646 649 
3 649 646 555 
3 649 555 554 
3 571 647 569 
3 569 647 650 
3 569 650 567 
3 567 650 651 
3 567 651 565 
3 565 651 564 
3 641 558 557 
3 327 628 328 
3 631 630 321 
3 321 630 323 
3 647 648 650 
3 650 648 652 
3 650 652 651 
3 651 652 653 
3 651 653 564 
3 564 653 563 
3 632 631 319 
3 319 631 321 
3 648 649 652 
3 652 649 654 
3 652 654 653 
3 653 654 655 
3 653 655 563 
3 563 655 562 
3 432 656 431 
3 431 656 657 
3 431 657 430 
3 430 657 658 
3 430 658 429 
3 429 658 377 
3 429 377 376 
3 377 658 378 
3 378 658 659 
3 378 659 379 
3 379 659 660 
3 379 660 380 
3 380 660 661 
3 380 661 381 
3 381 661 662 
3 381 662 382 
3 382 662 663 
3 382 663 383 
3 383 663 664 
3 383 664 384 
3 384 664 665 
3 384 665 385 
3 385 665 666 
3 385 666 386 
3 386 666 667 
3 386 667 387 
3 387 667 668 
3 387 668 388 
3 388 668 669 
3 388 669 389 
3 389 669 670 
3 389 670 390 
3 390 670 391 
3 319 317 632 
3 632 317 633 
3 634 633 315 
3 315 633 317 
3 554 553 654 
3 654 553 655 
3 562 655 552 
3 552 655 553 
3 554 654 649 
3 658 657 659 
3 659 657 671 
3 659 671 660 
3 660 671 672 
3 660 672 661 
3 661 672 673 
3 661 673 662 
3 662 673 674 
3 662 674 663 
3 663 674 675 
3 663 675 664 
3 664 675 676 
3 664 676 665 
3 665 676 677 
3 665 677 666 
3 666 677 678 
3 666 678 667 
3 667 678 679 
3 667 679 668 
3 668 679 680 
3 668 680 669 
3 669 680 681 
3 669 681 670 
3 670 681 682 
3 670 682 391 
3 391 682 392 
3 635 634 313 
3 313 634 315 
3 562 552 551 
3 434 683 656 
3 656 683 671 
3 656 671 657 
3 671 683 672 
3 672 683 684 
3 672 684 673 
3 673 684 685 
3 673 685 674 
3 674 685 686 
3 674 686 675 
3 675 686 687 
3 675 687 676 
3 676 687 688 
3 676 688 677 
3 677 688 689 
3 677 689 678 
3 678 689 690 
3 678 690 679 
3 679 690 691 
3 679 691 680 
3 680 691 692 
3 680 692 681 
3 681 692 693 
3 681 693 682 
3 682 693 694 
3 682 694 392 
3 392 694 393 
3 684 683 436 
3 436 683 434 
3 313 311 635 
3 635 311 636 
3 637 636 309 
3 309 636 311 
3 656 432 434 
3 685 684 438 
3 438 684 436 
3 638 637 307 
3 307 637 309 
3 686 685 440 
3 440 685 438 
3 639 638 305 
3 305 638 307 
3 481 695 480 
3 480 695 696 
3 480 696 479 
3 479 696 697 
3 479 697 478 
3 478 697 469 
3 478 469 468 
3 469 697 470 
3 470 697 698 
3 470 698 471 
3 471 698 699 
3 471 699 472 
3 472 699 700 
3 472 700 473 
3 473 700 701 
3 473 701 474 
3 474 701 702 
3 474 702 475 
3 475 702 703 
3 475 703 476 
3 476 703 704 
3 476 704 477 
3 477 704 403 
3 477 403 401 
3 440 442 686 
3 686 442 687 
3 688 687 444 
3 444 687 442 
3 305 303 639 
3 639 303 640 
3 509 640 301 
3 301 640 303 
3 697 696 698 
3 698 696 705 
3 698 705 699 
3 699 705 706 
3 699 706 700 
3 700 706 707 
3 700 707 701 
3 701 707 708 
3 701 708 702 
3 702 708 709 
3 702 709 703 
3 703 709 710 
3 703 710 704 
3 704 710 405 
3 704 405 403 
3 689 688 446 
3 446 688 444 
3 509 301 299 
3 483 711 695 
3 695 711 705 
3 695 705 696 
3 705 711 706 
3 706 711 712 
3 706 712 707 
3 707 712 713 
3 707 713 708 
3 708 713 714 
3 708 714 709 
3 709 714 715 
3 709 715 710 
3 710 715 407 
3 710 407 405 
3 712 711 485 
3 485 711 483 
3 446 448 689 
3 689 448 690 
3 691 690 450 
3 450 690 448 
3 695 481 483 
3 713 712 487 
3 487 712 485 
3 692 691 452 
3 452 691 450 
3 714 713 489 
3 489 713 487 
3 693 692 454 
3 454 692 452 
3 421 419 500 
3 500 419 716 
3 500 716 499 
3 499 716 497 
3 499 497 496 
3 497 716 498 
3 498 716 417 
3 498 417 415 
3 489 491 714 
3 714 491 715 
3 407 715 409 
3 409 715 491 
3 454 456 693 
3 693 456 694 
3 393 694 395 
3 395 694 456 
3 419 417 716 
3 420 422 717 
3 717 422 423 
3 717 423 718 
3 718 423 424 
3 718 424 719 
3 719 424 425 
3 719 425 720 
3 720 425 426 
3 720 426 428 
3 418 420 721 
3 721 420 717 
3 721 717 722 
3 722 717 718 
3 722 718 723 
3 723 718 719 
3 723 719 724 
3 724 719 720 
3 724 720 725 
3 725 720 428 
3 725 428 336 
3 416 418 726 
3 726 418 721 
3 726 721 727 
3 727 721 722 
3 727 722 728 
3 728 722 723 
3 728 723 729 
3 729 723 724 
3 729 724 730 
3 730 724 725 
3 730 725 338 
3 338 725 336 
3 414 416 731 
3 731 416 726 
3 731 726 732 
3 732 726 727 
3 732 727 733 
3 733 727 728 
3 733 728 734 
3 734 728 729 
3 734 729 735 
3 735 729 730 
3 735 730 340 
3 340 730 338 
3 412 414 736 
3 736 414 731 
3 736 731 737 
3 737 731 732 
3 737 732 738 
3 738 732 733 
3 738 733 739 
3 739 733 734 
3 739 734 740 
3 740 734 735 
3 740 735 342 
3 342 735 340 
3 410 412 741 
3 741 412 736 
3 741 736 742 
3 742 736 737 
3 742 737 743 
3 743 737 738 
3 743 738 744 
3 744 738 739 
3 744 739 745 
3 745 739 740 
3 745 740 344 
3 344 740 342 
3 408 410 746 
3 746 410 741 
3 746 741 747 
3 747 741 742 
3 747 742 748 
3 748 742 743 
3 748 743 749 
3 749 743 744 
3 749 744 750 
3 750 744 745 
3 750 745 346 
3 346 745 344 
3 406 408 751 
3 751 408 746 
3 751 746 752 
3 752 746 747 
3 752 747 753 
3 753 747 748 
3 753 748 754 
3 754 748 749 
3 754 749 755 
3 755 749 750 
3 755 750 348 
3 348 750 346 
3 404 406 756 
3 756 406 751 
3 756 751 757 
3 757 751 752 
3 757 752 758 
3 758 752 753 
3 758 753 759 
3 759 753 754 
3 759 754 760 
3 760 754 755 
3 760 755 350 
3 350 755 348 
3 402 404 761 
3 761 404 756 
3 761 756 762 
3 762 756 757 
3 762 757 763 
3 763 757 758 
3 763 758 764 
3 764 758 759 
3 764 759 765 
3 765 759 760 
3 765 760 352 
3 352 760 350 
3 400 402 766 
3 766 402 761 
3 766 761 767 
3 767 761 762 
3 767 762 768 
3 768 762 763 
3 768 763 769 
3 769 763 764 
3 769 764 770 
3 770 764 765 
3 770 765 354 
3 354 765 352 
3 400 766 507 
3 507 766 771 
3 507 771 505 
3 505 771 772 
3 505 772 503 
3 503 772 502 
3 766 767 771 
3 771 767 773 
3 771 773 772 
3 772 773 774 
3 772 774 502 
3 502 774 501 
3 767 768 773 
3 773 768 775 
3 773 775 774 
3 774 775 776 
3 774 776 501 
3 501 776 360 
3 354 356 770 
3 770 356 777 
3 770 777 769 
3 769 777 775 
3 769 775 768 
3 775 777 776 
3 776 777 358 
3 776 358 360 
3 356 358 777 
